<?xml version="1.0" encoding="UTF-8" standalone="no"?>
<!-- Created with Inkscape (http://www.inkscape.org/) -->

<svg
   version="1.1"
   id="svg1"
   width="534.37335"
   height="219.06667"
   viewBox="0 0 534.37335 219.06667"
   sodipodi:docname="Bitcoin-Entdecken-Logo-orange.eps"
   xmlns:inkscape="http://www.inkscape.org/namespaces/inkscape"
   xmlns:sodipodi="http://sodipodi.sourceforge.net/DTD/sodipodi-0.dtd"
   xmlns="http://www.w3.org/2000/svg"
   xmlns:svg="http://www.w3.org/2000/svg">
  <defs
     id="defs1" />
  <sodipodi:namedview
     id="namedview1"
     pagecolor="#ffffff"
     bordercolor="#000000"
     borderopacity="0.25"
     inkscape:showpageshadow="2"
     inkscape:pageopacity="0.0"
     inkscape:pagecheckerboard="0"
     inkscape:deskcolor="#d1d1d1">
    <inkscape:page
       x="0"
       y="0"
       inkscape:label="1"
       id="page1"
       width="534.37335"
       height="219.06667"
       margin="0"
       bleed="0" />
  </sodipodi:namedview>
  <g
     id="g1"
     inkscape:groupmode="layer"
     inkscape:label="1">
    <path
       id="path1"
       d="m 1968.33,1030.23 c 24.4,-5.2 44,-17.3 58.8,-36.3 14.8,-19 22.2,-40.7 22.2,-65.102 0,-35.199 -12.3,-63.098 -36.9,-83.699 -24.6,-20.598 -58.9,-30.899 -102.9,-30.899 h -196.2 v 421.2 h 189.6 c 42.8,0 76.3,-9.8 100.5,-29.4 24.2,-19.6 36.3,-46.2 36.3,-79.8 0,-24.8 -6.5,-45.4 -19.5,-61.8 -13,-16.4 -30.3,-27.8 -51.9,-34.2 z m -152.4,34.8 h 67.2 c 16.8,0 29.7,3.7 38.7,11.1 9,7.4 13.5,18.3 13.5,32.7 0,14.4 -4.5,25.4 -13.5,33 -9,7.6 -21.9,11.4 -38.7,11.4 h -67.2 z m 75.6,-167.999 c 17.2,0 30.5,3.899 39.9,11.699 9.4,7.801 14.1,19.098 14.1,33.899 0,14.801 -4.9,26.402 -14.7,34.801 -9.8,8.398 -23.3,12.601 -40.5,12.601 h -74.4 v -93 h 75.6"
       style="fill:#ff7700;fill-opacity:1;fill-rule:nonzero;stroke:none"
       transform="matrix(0.13333333,0,0,-0.13333333,0,219.06667)" />
    <path
       id="path2"
       d="m 2160.33,1183.83 c -18,0 -32.7,5.3 -44.1,15.9 -11.4,10.6 -17.1,23.7 -17.1,39.3 0,16 5.7,29.3 17.1,39.9 11.4,10.6 26.1,15.9 44.1,15.9 17.6,0 32.1,-5.3 43.5,-15.9 11.4,-10.6 17.1,-23.9 17.1,-39.9 0,-15.6 -5.7,-28.7 -17.1,-39.3 -11.4,-10.6 -25.9,-15.9 -43.5,-15.9 z m 51,-34.8 v -334.8 h -102.6 v 334.8 h 102.6"
       style="fill:#ff7700;fill-opacity:1;fill-rule:nonzero;stroke:none"
       transform="matrix(0.13333333,0,0,-0.13333333,0,219.06667)" />
    <path
       id="path3"
       d="m 2472.33,901.23 v -87 h -52.2 c -37.2,0 -66.2,9.098 -87,27.301 -20.8,18.199 -31.2,47.899 -31.2,89.098 v 133.201 h -40.8 v 85.2 h 40.8 v 81.6 h 102.6 v -81.6 h 67.2 v -85.2 h -67.2 v -134.4 c 0,-10 2.4,-17.2 7.2,-21.602 4.8,-4.398 12.8,-6.598 24,-6.598 h 36.6"
       style="fill:#ff7700;fill-opacity:1;fill-rule:nonzero;stroke:none"
       transform="matrix(0.13333333,0,0,-0.13333333,0,219.06667)" />
    <path
       id="path4"
       d="m 2508.93,981.629 c 0,34.801 7.1,65.201 21.3,91.201 14.2,26 34,46 59.4,60 25.4,14 54.5,21 87.3,21 42,0 77.1,-11 105.3,-33 28.2,-22 46.7,-53 55.5,-93 h -109.2 c -9.2,25.6 -27,38.4 -53.4,38.4 -18.8,0 -33.8,-7.3 -45,-21.9 -11.2,-14.6 -16.8,-35.5 -16.8,-62.701 0,-27.199 5.6,-48.098 16.8,-62.699 11.2,-14.602 26.2,-21.899 45,-21.899 26.4,0 44.2,12.797 53.4,38.399 h 109.2 c -8.8,-39.2 -27.4,-70 -55.8,-92.399 -28.4,-22.402 -63.4,-33.601 -105,-33.601 -32.8,0 -61.9,7 -87.3,21 -25.4,14 -45.2,34 -59.4,60 -14.2,26 -21.3,56.398 -21.3,91.199"
       style="fill:#ff7700;fill-opacity:1;fill-rule:nonzero;stroke:none"
       transform="matrix(0.13333333,0,0,-0.13333333,0,219.06667)" />
    <path
       id="path5"
       d="m 3044.73,809.43 c -32.8,0 -62.3,7 -88.5,21 -26.2,14 -46.8,34 -61.8,60 -15,26 -22.5,56.398 -22.5,91.199 0,34.401 7.6,64.701 22.8,90.901 15.2,26.2 36,46.3 62.4,60.3 26.4,14 56,21 88.8,21 32.8,0 62.4,-7 88.8,-21 26.4,-14 47.2,-34.1 62.4,-60.3 15.2,-26.2 22.8,-56.5 22.8,-90.901 0,-34.399 -7.7,-64.699 -23.1,-90.899 -15.4,-26.199 -36.4,-46.3 -63,-60.3 -26.6,-14 -56.3,-21 -89.1,-21 z m 0,88.8 c 19.6,0 36.3,7.2 50.1,21.598 13.8,14.402 20.7,35 20.7,61.801 0,26.801 -6.7,47.401 -20.1,61.801 -13.4,14.4 -29.9,21.6 -49.5,21.6 -20,0 -36.6,-7.1 -49.8,-21.3 -13.2,-14.2 -19.8,-34.9 -19.8,-62.101 0,-26.801 6.5,-47.399 19.5,-61.801 13,-14.398 29.3,-21.598 48.9,-21.598"
       style="fill:#ff7700;fill-opacity:1;fill-rule:nonzero;stroke:none"
       transform="matrix(0.13333333,0,0,-0.13333333,0,219.06667)" />
    <path
       id="path6"
       d="m 3326.13,1183.83 c -18,0 -32.7,5.3 -44.1,15.9 -11.4,10.6 -17.1,23.7 -17.1,39.3 0,16 5.7,29.3 17.1,39.9 11.4,10.6 26.1,15.9 44.1,15.9 17.6,0 32.1,-5.3 43.5,-15.9 11.4,-10.6 17.1,-23.9 17.1,-39.9 0,-15.6 -5.7,-28.7 -17.1,-39.3 -11.4,-10.6 -25.9,-15.9 -43.5,-15.9 z m 51,-34.8 v -334.8 h -102.6 v 334.8 h 102.6"
       style="fill:#ff7700;fill-opacity:1;fill-rule:nonzero;stroke:none"
       transform="matrix(0.13333333,0,0,-0.13333333,0,219.06667)" />
    <path
       id="path7"
       d="m 3655.53,1152.63 c 39.2,0 70.5,-12.7 93.9,-38.1 23.4,-25.4 35.1,-60.3 35.1,-104.7 v -195.6 h -102 v 181.801 c 0,22.399 -5.8,39.799 -17.4,52.199 -11.6,12.4 -27.2,18.6 -46.8,18.6 -19.6,0 -35.2,-6.2 -46.8,-18.6 -11.6,-12.4 -17.4,-29.8 -17.4,-52.199 V 814.23 h -102.6 v 334.8 h 102.6 v -44.4 c 10.4,14.8 24.4,26.5 42,35.1 17.6,8.6 37.4,12.9 59.4,12.9"
       style="fill:#ff7700;fill-opacity:1;fill-rule:nonzero;stroke:none"
       transform="matrix(0.13333333,0,0,-0.13333333,0,219.06667)" />
    <path
       id="path8"
       d="m 1911.47,557.641 c 0,-9.84 -0.28,-17.352 -0.82,-22.551 h -185.73 c 0.82,-16.942 4.92,-31.43 12.3,-43.461 7.38,-12.02 17.08,-21.109 29.11,-27.258 12.02,-6.152 25.14,-9.23 39.36,-9.23 18.58,0 34.23,4.507 46.94,13.531 12.71,9.019 21.12,21.187 25.22,36.488 h 30.34 c -5.47,-21.859 -17.15,-39.699 -35.06,-53.5 -17.9,-13.808 -40.38,-20.711 -67.44,-20.711 -21.05,0 -39.91,4.723 -56.58,14.153 -16.68,9.429 -29.73,22.82 -39.16,40.179 -9.43,17.348 -14.14,37.649 -14.14,60.879 0,23.238 4.64,43.602 13.94,61.09 9.29,17.5 22.27,30.891 38.95,40.18 16.67,9.3 35.67,13.941 56.99,13.941 21.32,0 39.97,-4.641 55.96,-13.941 15.99,-9.289 28.29,-21.801 36.9,-37.508 8.61,-15.723 12.92,-33.141 12.92,-52.281 z m -29.11,0.82 c 0.27,16.68 -3.08,30.891 -10.05,42.641 -6.97,11.757 -16.47,20.636 -28.49,26.648 -12.03,6.02 -25.15,9.02 -39.36,9.02 -21.32,0 -39.5,-6.829 -54.53,-20.5 -15.04,-13.661 -23.37,-32.93 -25.01,-57.809 h 157.44"
       style="fill:#ff7700;fill-opacity:1;fill-rule:nonzero;stroke:none"
       transform="matrix(0.13333333,0,0,-0.13333333,0,219.06667)" />
    <path
       id="path9"
       d="m 2068.91,662.191 c 26.78,0 48.65,-8.269 65.6,-24.8 16.94,-16.539 25.42,-40.52 25.42,-71.961 v -131.2 h -28.29 v 127.918 c 0,24.332 -6.08,42.922 -18.25,55.762 -12.16,12.852 -28.77,19.27 -49.81,19.27 -21.6,0 -38.82,-6.828 -51.66,-20.5 -12.85,-13.66 -19.27,-33.75 -19.27,-60.27 V 434.23 h -28.7 v 223.86 h 28.7 v -38.129 c 7.1,13.668 17.35,24.117 30.75,31.367 13.39,7.242 28.56,10.863 45.51,10.863"
       style="fill:#ff7700;fill-opacity:1;fill-rule:nonzero;stroke:none"
       transform="matrix(0.13333333,0,0,-0.13333333,0,219.06667)" />
    <path
       id="path10"
       d="M 2260.79,633.898 V 494.91 c 0,-13.66 2.59,-23.09 7.79,-28.289 5.19,-5.191 14.35,-7.793 27.47,-7.793 h 26.24 V 434.23 h -30.75 c -20.23,0 -35.26,4.719 -45.1,14.149 -9.84,9.43 -14.76,24.941 -14.76,46.531 v 138.988 h -31.16 v 24.192 h 31.16 v 56.172 h 29.11 V 658.09 h 61.5 v -24.192 h -61.5"
       style="fill:#ff7700;fill-opacity:1;fill-rule:nonzero;stroke:none"
       transform="matrix(0.13333333,0,0,-0.13333333,0,219.06667)" />
    <path
       id="path11"
       d="m 2356.32,546.57 c 0,22.961 4.64,43.121 13.94,60.481 9.29,17.347 22.07,30.75 38.33,40.179 16.27,9.43 34.65,14.141 55.15,14.141 19.68,0 37.44,-4.781 53.3,-14.351 15.85,-9.559 27.47,-22 34.85,-37.309 v 127.918 h 28.7 V 434.23 h -28.7 v 50.02 c -6.84,-15.578 -18.04,-28.359 -33.62,-38.328 -15.58,-9.981 -33.9,-14.973 -54.94,-14.973 -20.5,0 -38.88,4.789 -55.15,14.352 -16.26,9.57 -28.97,23.097 -38.13,40.59 -9.15,17.5 -13.73,37.718 -13.73,60.679 z m 195.57,-0.41 c 0,18.039 -3.69,33.899 -11.07,47.559 -7.38,13.672 -17.43,24.191 -30.14,31.57 -12.71,7.383 -26.72,11.07 -42.02,11.07 -15.86,0 -30.07,-3.55 -42.64,-10.66 -12.58,-7.097 -22.48,-17.418 -29.73,-30.949 -7.24,-13.531 -10.86,-29.59 -10.86,-48.18 0,-18.308 3.62,-34.371 10.86,-48.172 7.25,-13.808 17.15,-24.328 29.73,-31.57 12.57,-7.25 26.78,-10.867 42.64,-10.867 15.3,0 29.31,3.687 42.02,11.07 12.71,7.379 22.76,17.91 30.14,31.571 7.38,13.668 11.07,29.519 11.07,47.558"
       style="fill:#ff7700;fill-opacity:1;fill-rule:nonzero;stroke:none"
       transform="matrix(0.13333333,0,0,-0.13333333,0,219.06667)" />
    <path
       id="path12"
       d="m 2848.73,557.641 c 0,-9.84 -0.28,-17.352 -0.82,-22.551 h -185.73 c 0.82,-16.942 4.92,-31.43 12.3,-43.461 7.38,-12.02 17.08,-21.109 29.11,-27.258 12.02,-6.152 25.14,-9.23 39.36,-9.23 18.58,0 34.23,4.507 46.94,13.531 12.71,9.019 21.12,21.187 25.22,36.488 h 30.34 c -5.47,-21.859 -17.15,-39.699 -35.06,-53.5 -17.9,-13.808 -40.38,-20.711 -67.44,-20.711 -21.05,0 -39.91,4.723 -56.58,14.153 -16.68,9.429 -29.73,22.82 -39.16,40.179 -9.43,17.348 -14.14,37.649 -14.14,60.879 0,23.238 4.64,43.602 13.94,61.09 9.29,17.5 22.27,30.891 38.95,40.18 16.67,9.3 35.67,13.941 56.99,13.941 21.32,0 39.97,-4.641 55.96,-13.941 15.99,-9.289 28.29,-21.801 36.9,-37.508 8.61,-15.723 12.92,-33.141 12.92,-52.281 z m -29.11,0.82 c 0.27,16.68 -3.08,30.891 -10.05,42.641 -6.97,11.757 -16.47,20.636 -28.49,26.648 -12.03,6.02 -25.15,9.02 -39.36,9.02 -21.32,0 -39.5,-6.829 -54.53,-20.5 -15.04,-13.661 -23.37,-32.93 -25.01,-57.809 h 157.44"
       style="fill:#ff7700;fill-opacity:1;fill-rule:nonzero;stroke:none"
       transform="matrix(0.13333333,0,0,-0.13333333,0,219.06667)" />
    <path
       id="path13"
       d="m 2888.09,546.16 c 0,23.238 4.64,43.531 13.94,60.891 9.29,17.347 22.14,30.75 38.54,40.179 16.4,9.43 35.12,14.141 56.17,14.141 27.6,0 50.36,-6.832 68.26,-20.5 17.91,-13.66 29.45,-32.25 34.65,-55.762 h -30.75 c -3.83,16.129 -12.1,28.77 -24.81,37.93 -12.71,9.152 -28.49,13.731 -47.35,13.731 -15.04,0 -28.57,-3.411 -40.59,-10.25 -12.03,-6.829 -21.53,-17.008 -28.5,-30.54 -6.97,-13.531 -10.45,-30.14 -10.45,-49.82 0,-19.68 3.48,-36.351 10.45,-50.019 6.97,-13.661 16.47,-23.911 28.5,-30.75 12.02,-6.832 25.55,-10.25 40.59,-10.25 18.86,0 34.64,4.578 47.35,13.738 12.71,9.152 20.98,21.93 24.81,38.332 h 30.75 c -5.2,-22.961 -16.81,-41.41 -34.85,-55.352 -18.04,-13.937 -40.73,-20.91 -68.06,-20.91 -21.05,0 -39.77,4.723 -56.17,14.153 -16.4,9.429 -29.25,22.82 -38.54,40.179 -9.3,17.348 -13.94,37.649 -13.94,60.879"
       style="fill:#ff7700;fill-opacity:1;fill-rule:nonzero;stroke:none"
       transform="matrix(0.13333333,0,0,-0.13333333,0,219.06667)" />
    <path
       id="path14"
       d="m 3273.49,434.23 -92.25,100.45 V 434.23 h -28.7 v 303.399 h 28.7 V 558.051 l 90.2,100.039 h 40.18 L 3205.43,546.57 3312.44,434.23 h -38.95"
       style="fill:#ff7700;fill-opacity:1;fill-rule:nonzero;stroke:none"
       transform="matrix(0.13333333,0,0,-0.13333333,0,219.06667)" />
    <path
       id="path15"
       d="m 3551.88,557.641 c 0,-9.84 -0.28,-17.352 -0.82,-22.551 h -185.73 c 0.82,-16.942 4.92,-31.43 12.3,-43.461 7.38,-12.02 17.08,-21.109 29.11,-27.258 12.02,-6.152 25.14,-9.23 39.36,-9.23 18.58,0 34.23,4.507 46.94,13.531 12.71,9.019 21.12,21.187 25.22,36.488 h 30.34 c -5.47,-21.859 -17.15,-39.699 -35.06,-53.5 -17.9,-13.808 -40.38,-20.711 -67.44,-20.711 -21.05,0 -39.91,4.723 -56.58,14.153 -16.68,9.429 -29.73,22.82 -39.16,40.179 -9.43,17.348 -14.14,37.649 -14.14,60.879 0,23.238 4.64,43.602 13.94,61.09 9.29,17.5 22.27,30.891 38.95,40.18 16.67,9.3 35.67,13.941 56.99,13.941 21.32,0 39.97,-4.641 55.96,-13.941 15.99,-9.289 28.29,-21.801 36.9,-37.508 8.61,-15.723 12.92,-33.141 12.92,-52.281 z m -29.11,0.82 c 0.27,16.68 -3.08,30.891 -10.05,42.641 -6.97,11.757 -16.47,20.636 -28.49,26.648 -12.03,6.02 -25.15,9.02 -39.36,9.02 -21.32,0 -39.5,-6.829 -54.53,-20.5 -15.04,-13.661 -23.37,-32.93 -25.01,-57.809 h 157.44"
       style="fill:#ff7700;fill-opacity:1;fill-rule:nonzero;stroke:none"
       transform="matrix(0.13333333,0,0,-0.13333333,0,219.06667)" />
    <path
       id="path16"
       d="m 3709.32,662.191 c 26.78,0 48.65,-8.269 65.6,-24.8 16.94,-16.539 25.42,-40.52 25.42,-71.961 v -131.2 h -28.29 v 127.918 c 0,24.332 -6.08,42.922 -18.25,55.762 -12.16,12.852 -28.77,19.27 -49.81,19.27 -21.6,0 -38.82,-6.828 -51.66,-20.5 -12.85,-13.66 -19.27,-33.75 -19.27,-60.27 V 434.23 h -28.7 v 223.86 h 28.7 v -38.129 c 7.1,13.668 17.35,24.117 30.75,31.367 13.39,7.242 28.56,10.863 45.51,10.863"
       style="fill:#ff7700;fill-opacity:1;fill-rule:nonzero;stroke:none"
       transform="matrix(0.13333333,0,0,-0.13333333,0,219.06667)" />
    <path
       id="path17"
       d="M 305.012,571.281 C 197.148,713.969 153.809,903.129 203.648,1089.12 289.422,1409.22 618.941,1599.47 939.039,1513.7 1259.14,1427.93 1449.39,1098.41 1363.62,778.309 1324.58,632.621 1235.06,513.82 1118.91,435.711 l 153.76,-266.32 c 12.42,-21.512 5.04,-49.063 -16.47,-61.481 -21.51,-12.41 -49.05,-5.031 -61.47,16.481 l -175.58,304.097 c -12.41,21.512 -5.03,49.051 16.48,61.473 0.5,0.289 1,0.57 1.51,0.828 113.95,65.231 202.91,174.09 239.54,310.813 72.92,272.118 -88.81,552.248 -360.942,625.158 -272.117,72.92 -552.238,-88.81 -625.16,-360.94 -44.387,-165.66 -1.797,-334.289 99.703,-457.34 2.598,-2.429 4.86,-5.128 6.77,-8.039 C 411,584.219 426,568.84 441.98,554.41 c 0.93,-0.84 1.809,-1.699 2.649,-2.59 54.902,-49.218 115.883,-70.679 165.93,-84.09 133.152,-35.671 244.191,25.68 266.57,110.372 13.883,52.539 -12.168,109.687 -86.231,152.449 L 573.48,856.07 499.672,728.219 c -12.422,-21.508 -39.973,-28.891 -61.473,-16.469 -21.508,12.422 -28.89,39.961 -16.48,61.469 l 235.031,407.071 -50.059,28.91 c -21.511,12.41 -28.89,39.96 -16.472,61.47 12.422,21.51 39.961,28.89 61.472,16.47 l 49.957,-28.85 51.114,88.52 c 12.41,21.51 39.957,28.89 61.468,16.47 21.508,-12.42 28.891,-39.96 16.469,-61.47 l -51.019,-88.37 111.058,-64.12 51.871,89.85 c 12.422,21.51 39.961,28.89 61.471,16.48 21.51,-12.42 28.89,-39.97 16.47,-61.48 l -51.87,-89.85 5.332,-3.07 c 127.678,-73.72 138.018,-199.84 86.898,-288.379 -26.4,-45.723 -69.672,-82.262 -122.941,-96.762 33.871,-52.238 39.871,-109.16 26.172,-161.007 -32.2,-121.883 -185.25,-225.653 -376.871,-174.301 -10.051,2.687 -20.442,5.679 -31.09,9.051 l -52,-90.063 c -12.418,-21.508 -39.961,-28.891 -61.469,-16.469 -21.512,12.41 -28.891,39.961 -16.473,61.469 l 45.91,79.52 c -32.32,16.882 -64.957,38.863 -95.918,68.16 -0.582,0.551 -1.14,1.109 -1.691,1.679 -2.199,2.051 -4.391,4.122 -6.559,6.211 L 314.32,407.422 C 301.91,385.91 274.359,378.531 252.852,390.949 231.34,403.371 223.961,430.91 236.379,452.422 Z M 618.48,934.02 812.719,821.879 c 73.761,-42.59 140.711,-15.168 170.25,35.992 29.531,51.149 19.811,122.848 -53.957,165.429 L 734.781,1135.44 618.48,934.02"
       style="fill:#ff7700;fill-opacity:1;fill-rule:evenodd;stroke:none"
       transform="matrix(0.13333333,0,0,-0.13333333,0,219.06667)" />
  </g>
</svg>
