<svg version="1.2" xmlns="http://www.w3.org/2000/svg" viewBox="0 0 309 136" width="309" height="136"><style>.a{fill:#fff}</style><path class="a" d="m50.4 41.7q4.9 1 7.9 4.8 2.9 3.8 2.9 8.7 0 7.1-4.9 11.2-4.9 4.1-13.7 4.1h-26.2v-56.2h25.3q8.6 0 13.4 4 4.9 3.9 4.9 10.6 0 5-2.6 8.2-2.6 3.3-7 4.6zm-20.3-4.6h9q3.3 0 5.1-1.5 1.8-1.5 1.8-4.4 0-2.9-1.8-4.4-1.8-1.5-5.1-1.5h-9zm10.1 22.4q3.4 0 5.3-1.6 1.9-1.5 1.9-4.5 0-2.9-2-4.6-1.9-1.7-5.4-1.7h-9.9v12.4z"/><path class="a" d="m76 21.2q-3.6 0-5.8-2.1-2.3-2.1-2.3-5.2 0-3.2 2.3-5.4 2.2-2.1 5.8-2.1 3.6 0 5.8 2.1 2.3 2.2 2.3 5.4 0 3.1-2.3 5.2-2.2 2.1-5.8 2.1zm6.8 4.7v44.6h-13.6v-44.6z"/><path class="a" d="m117.6 58.9v11.6h-6.9q-7.5 0-11.6-3.6-4.2-3.7-4.2-11.9v-17.8h-5.4v-11.3h5.4v-10.9h13.7v10.9h9v11.3h-9v17.9q0 2 1 2.9 0.9 0.9 3.2 0.9z"/><path class="a" d="m122.5 48.2q0-7 2.9-12.2 2.8-5.2 7.9-8 5.1-2.8 11.6-2.8 8.4 0 14.1 4.4 5.6 4.4 7.4 12.4h-14.6q-1.8-5.1-7.1-5.1-3.8 0-6 2.9-2.3 2.9-2.3 8.4 0 5.4 2.3 8.3 2.2 3 6 3 5.3 0 7.1-5.2h14.6q-1.8 7.9-7.5 12.4-5.7 4.4-14 4.4-6.5 0-11.6-2.8-5.1-2.8-7.9-8-2.9-5.2-2.9-12.1z"/><path class="a" d="m194 71.1q-6.6 0-11.8-2.8-5.3-2.8-8.3-8-3-5.2-3-12.1 0-6.9 3.1-12.1 3-5.3 8.3-8.1 5.3-2.8 11.8-2.8 6.6 0 11.9 2.8 5.2 2.8 8.3 8.1 3 5.2 3 12.1 0 6.9-3.1 12.1-3 5.2-8.4 8-5.3 2.8-11.8 2.8zm0-11.8q3.9 0 6.6-2.9 2.8-2.9 2.8-8.2 0-5.4-2.7-8.3-2.7-2.8-6.6-2.8-4 0-6.6 2.8-2.7 2.8-2.7 8.3 0 5.3 2.6 8.2 2.6 2.9 6.6 2.9z"/><path class="a" d="m231.5 21.2q-3.6 0-5.9-2.1-2.3-2.1-2.3-5.2 0-3.2 2.3-5.4 2.3-2.1 5.9-2.1 3.5 0 5.8 2.1 2.3 2.2 2.3 5.4 0 3.1-2.3 5.2-2.3 2.1-5.8 2.1zm6.8 4.7v44.6h-13.7v-44.6z"/><path class="a" d="m275.4 25.4q7.8 0 12.5 5.1 4.7 5 4.7 13.9v26.1h-13.6v-24.2q0-4.5-2.3-7-2.3-2.5-6.3-2.5-3.9 0-6.2 2.5-2.3 2.5-2.3 7v24.2h-13.7v-44.6h13.7v5.9q2.1-3 5.6-4.7 3.5-1.7 7.9-1.7z"/><path class="a" d="m42.9 104.7q0 2-0.1 3h-24.8q0.2 3.4 1.6 5.8 1.5 2.4 3.9 3.7 2.4 1.2 5.3 1.2 3.7 0 6.2-1.8 2.6-1.8 3.4-4.9h4q-1.1 4.4-4.6 7.1-3.6 2.8-9 2.8-4.3 0-7.6-1.9-3.3-1.9-5.2-5.3-1.9-3.5-1.9-8.2 0-4.6 1.9-8.1 1.8-3.5 5.2-5.4 3.3-1.8 7.6-1.8 4.2 0 7.4 1.8 3.2 1.9 4.9 5 1.8 3.2 1.8 7zm-3.9-0.1q0-3.3-1.4-5.7-1.4-2.3-3.8-3.5-2.4-1.2-5.2-1.2-4.3 0-7.3 2.7-3 2.7-3.3 7.7z"/><path class="a" d="m63.9 90.8q5.3 0 8.7 3.3 3.4 3.3 3.4 9.6v17.5h-3.8v-17.1q0-4.9-2.4-7.4-2.4-2.6-6.7-2.6-4.3 0-6.8 2.7-2.6 2.8-2.6 8.1v16.3h-3.8v-29.9h3.8v5.1q1.4-2.7 4.1-4.2 2.7-1.4 6.1-1.4z"/><path class="a" d="m89.4 94.5v18.6q0 2.7 1.1 3.8 1 1 3.6 1h3.5v3.3h-4.1q-4 0-6-1.9-1.9-1.9-1.9-6.2v-18.6h-4.2v-3.2h4.2v-7.5h3.8v7.5h8.2v3.2z"/><path class="a" d="m102.2 106.2q0-4.6 1.8-8.1 1.9-3.4 5.1-5.3 3.3-1.9 7.4-1.9 3.9 0 7.1 1.9 3.2 1.9 4.7 5v-17.1h3.8v40.5h-3.8v-6.7q-1.4 3.1-4.5 5.1-3.1 2-7.4 2-4.1 0-7.3-1.9-3.3-1.9-5.1-5.4-1.8-3.5-1.8-8.1zm26.1 0q0-3.6-1.5-6.3-1.5-2.7-4-4.2-2.6-1.5-5.6-1.5-3.2 0-5.7 1.4-2.5 1.5-4 4.2-1.4 2.7-1.4 6.4 0 3.7 1.4 6.4 1.5 2.8 4 4.2 2.5 1.5 5.7 1.5 3 0 5.6-1.5 2.5-1.5 4-4.2 1.5-2.7 1.5-6.4z"/><path class="a" d="m167.8 104.7q0 2-0.1 3h-24.7q0.1 3.4 1.6 5.8 1.5 2.4 3.9 3.7 2.4 1.2 5.2 1.2 3.7 0 6.3-1.8 2.5-1.8 3.3-4.9h4.1q-1.1 4.4-4.7 7.1-3.6 2.8-9 2.8-4.2 0-7.5-1.9-3.4-1.9-5.2-5.3-1.9-3.5-1.9-8.2 0-4.6 1.8-8.1 1.9-3.5 5.2-5.4 3.4-1.8 7.6-1.8 4.3 0 7.5 1.8 3.2 1.9 4.9 5 1.7 3.2 1.7 7zm-3.9-0.1q0.1-3.3-1.3-5.7-1.4-2.3-3.8-3.5-2.4-1.2-5.2-1.2-4.3 0-7.3 2.7-3 2.7-3.3 7.7z"/><path class="a" d="m173.1 106.2q0-4.6 1.8-8.1 1.9-3.4 5.2-5.3 3.3-1.9 7.5-1.9 5.5 0 9.1 2.7 3.5 2.7 4.6 7.5h-4.1q-0.8-3.3-3.3-5.1-2.6-1.8-6.3-1.8-3 0-5.4 1.3-2.5 1.4-3.8 4.1-1.4 2.7-1.4 6.6 0 4 1.4 6.7 1.3 2.7 3.8 4.1 2.4 1.4 5.4 1.4 3.7 0 6.3-1.9 2.5-1.8 3.3-5.1h4.1q-1.1 4.6-4.7 7.4-3.6 2.8-9 2.8-4.2 0-7.5-1.9-3.3-1.9-5.2-5.3-1.8-3.5-1.8-8.2z"/><path class="a" d="m224.5 121.2l-12.3-13.4v13.4h-3.9v-40.5h3.9v24l12-13.4h5.3l-14.1 14.9 14.3 15z"/><path class="a" d="m261.6 104.7q0 2-0.1 3h-24.8q0.2 3.4 1.7 5.8 1.4 2.4 3.8 3.7 2.4 1.2 5.3 1.2 3.7 0 6.2-1.8 2.6-1.8 3.4-4.9h4q-1 4.4-4.6 7.1-3.6 2.8-9 2.8-4.2 0-7.6-1.9-3.3-1.9-5.2-5.3-1.9-3.5-1.9-8.2 0-4.6 1.9-8.1 1.8-3.5 5.2-5.4 3.3-1.8 7.6-1.8 4.2 0 7.4 1.8 3.2 1.9 5 5 1.7 3.2 1.7 7zm-3.9-0.1q0.1-3.3-1.3-5.7-1.4-2.3-3.8-3.5-2.4-1.2-5.3-1.2-4.2 0-7.3 2.7-3 2.7-3.3 7.7z"/><path class="a" d="m282.6 90.8q5.3 0 8.7 3.3 3.4 3.3 3.4 9.6v17.5h-3.8v-17.1q0-4.9-2.4-7.4-2.4-2.6-6.6-2.6-4.4 0-6.9 2.7-2.6 2.8-2.6 8.1v16.3h-3.8v-29.9h3.8v5.1q1.4-2.7 4.1-4.2 2.7-1.4 6.1-1.4z"/></svg>