<svg width="148" height="199" viewBox="0 0 148 199" fill="none" xmlns="http://www.w3.org/2000/svg">
<path d="M31.5 44.9062C26.438 44.9062 21.4898 46.4073 17.2809 49.2196C13.072 52.0319 9.7916 56.029 7.85447 60.7057C5.91734 65.3823 5.4105 70.5284 6.39804 75.4931C7.38558 80.4578 9.82315 85.0182 13.4025 88.5975C16.9818 92.1769 21.5422 94.6144 26.5069 95.602C31.4716 96.5895 36.6177 96.0827 41.2943 94.1455C45.971 92.2084 49.9682 88.928 52.7804 84.7191C55.5927 80.5103 57.0938 75.562 57.0938 70.5C57.0866 63.7143 54.3878 57.2086 49.5896 52.4104C44.7914 47.6122 38.2857 44.9134 31.5 44.9062ZM31.5 92.1562C27.2168 92.1562 23.0298 90.8861 19.4684 88.5065C15.9071 86.1269 13.1314 82.7446 11.4922 78.7875C9.85313 74.8303 9.42427 70.476 10.2599 66.2751C11.0955 62.0742 13.158 58.2154 16.1867 55.1867C19.2154 52.158 23.0742 50.0955 27.2751 49.2599C31.476 48.4243 35.8303 48.8531 39.7875 50.4922C43.7447 52.1313 47.1269 54.9071 49.5065 58.4684C51.8861 62.0298 53.1563 66.2168 53.1563 70.5C53.1497 76.2416 50.866 81.7462 46.8061 85.8061C42.7462 89.866 37.2416 92.1497 31.5 92.1562ZM47.25 70.5C47.25 71.0221 47.0426 71.5229 46.6734 71.8921C46.3042 72.2613 45.8034 72.4687 45.2813 72.4687H31.5C30.9779 72.4687 30.4771 72.2613 30.1079 71.8921C29.7387 71.5229 29.5313 71.0221 29.5313 70.5V56.7187C29.5313 56.1966 29.7387 55.6958 30.1079 55.3266C30.4771 54.9574 30.9779 54.75 31.5 54.75C32.0222 54.75 32.5229 54.9574 32.8921 55.3266C33.2613 55.6958 33.4688 56.1966 33.4688 56.7187V68.5312H45.2813C45.8034 68.5312 46.3042 68.7387 46.6734 69.1079C47.0426 69.4771 47.25 69.9779 47.25 70.5Z" fill="white"/>
<g clip-path="url(#clip0_17_280)">
<path d="M133.305 24.8066L95.4029 14.6507C93.9668 14.2659 92.4368 14.4673 91.1492 15.2107C89.8617 15.954 88.9222 17.1784 88.5374 18.6144L85.2731 30.7973C85.0497 31.6381 85.0243 32.5191 85.1987 33.3714C85.3731 34.2236 85.7426 35.0239 86.2782 35.7093L100.413 53.7148L79.1691 62.2409C78.3625 62.5667 77.6424 63.075 77.0652 63.7258C76.4881 64.3767 76.0696 65.1525 75.8426 65.9922L72.5782 78.1751C72.1934 79.6111 72.3949 81.1412 73.1382 82.4287C73.8816 83.7163 75.1059 84.6558 76.542 85.0405L114.444 95.1964C115.88 95.5812 117.41 95.3798 118.698 94.6364C119.985 93.8931 120.925 92.6687 121.31 91.2327L124.541 79.1716C124.764 78.3341 124.79 77.4565 124.618 76.6072C124.446 75.7578 124.081 74.9595 123.55 74.2743L109.414 56.1268L130.731 47.4754C131.533 47.1483 132.249 46.6404 132.822 45.9913C133.396 45.3422 133.812 44.5693 134.037 43.733L137.269 31.672C137.654 30.236 137.452 28.7059 136.709 27.4184C135.966 26.1308 134.741 25.1913 133.305 24.8066ZM131.854 30.2212L130.403 35.6358L92.5012 25.4799L93.952 20.0653L131.854 30.2212ZM115.895 89.7818L77.9928 79.6259L81.2572 67.4431L104.017 58.3077L119.128 77.7174L115.895 89.7818ZM105.83 51.5394L90.6877 32.2481L91.0504 30.8945L128.953 41.0504L128.623 42.2822L105.83 51.5394Z" fill="white"/>
</g>
<g clip-path="url(#clip1_17_280)">
<path d="M72.7194 120.159L26.8379 132.452C25.6211 132.779 24.5836 133.575 23.9537 134.666C23.3238 135.757 23.1531 137.053 23.4792 138.27L27.782 154.329C31.8329 169.446 41.6059 176.648 49.0916 180.026C57.1534 183.663 64.2234 183.736 64.5309 183.736C64.954 183.738 65.3698 183.626 65.7353 183.413C66.0014 183.259 72.0792 179.664 77.2514 172.481C82.0275 165.817 86.8907 154.694 82.8398 139.576L78.5369 123.517C78.2109 122.3 77.4148 121.263 76.3238 120.633C75.2328 120.003 73.9363 119.833 72.7194 120.159ZM78.2517 140.805C81.1 151.435 79.4949 161.114 73.48 169.567C70.8591 173.237 67.612 176.417 63.8875 178.96C59.4508 178.631 55.1063 177.526 51.051 175.697C41.5205 171.396 35.2362 163.795 32.3702 153.099L28.0673 137.041L73.9488 124.747L78.2517 140.805ZM44.4965 158.966C43.9507 158.651 43.5524 158.132 43.3893 157.523C43.2262 156.914 43.3116 156.266 43.6267 155.72C43.9418 155.174 44.4608 154.776 45.0696 154.613C45.6784 154.449 46.327 154.535 46.8728 154.85L53.5419 158.703L64.1086 140.396C64.2647 140.126 64.4724 139.889 64.72 139.699C64.9676 139.509 65.2501 139.37 65.5516 139.289C65.853 139.209 66.1674 139.188 66.4768 139.229C66.7862 139.269 67.0845 139.371 67.3548 139.527C67.625 139.683 67.8619 139.89 68.0519 140.138C68.2418 140.386 68.3812 140.668 68.462 140.97C68.5427 141.271 68.5633 141.585 68.5226 141.895C68.4819 142.204 68.3806 142.503 68.2246 142.773L56.4689 163.134C56.313 163.405 56.1053 163.642 55.8578 163.832C55.6102 164.022 55.3276 164.161 55.0261 164.242C54.7247 164.323 54.4102 164.343 54.1008 164.302C53.7914 164.262 53.493 164.16 53.2228 164.004L44.4965 158.966Z" fill="white"/>
</g>
<path d="M149.605 115.395C146.577 112.363 142.615 110.44 138.36 109.935C134.105 109.431 129.804 110.375 126.151 112.615C122.498 114.855 119.706 118.26 118.226 122.282C116.746 126.303 116.665 130.706 117.994 134.78L104.836 147.937C104.481 148.29 104.199 148.71 104.007 149.173C103.815 149.635 103.717 150.132 103.719 150.632V157.469C103.719 158.48 104.12 159.45 104.835 160.165C105.55 160.88 106.52 161.281 107.531 161.281H115.156C115.662 161.281 116.147 161.08 116.504 160.723C116.862 160.365 117.062 159.881 117.062 159.375V155.562H120.875C121.381 155.562 121.865 155.362 122.223 155.004C122.58 154.647 122.781 154.162 122.781 153.656V149.844H126.594C126.844 149.844 127.092 149.795 127.324 149.699C127.555 149.603 127.765 149.463 127.942 149.286L130.22 147.006C132.127 147.626 134.12 147.94 136.125 147.937H136.149C139.917 147.933 143.599 146.812 146.731 144.715C149.862 142.619 152.302 139.641 153.742 136.159C155.182 132.677 155.557 128.846 154.821 125.15C154.084 121.454 152.269 118.06 149.605 115.395ZM151.375 129.375C151.115 137.498 144.286 144.115 136.151 144.125H136.125C134.195 144.128 132.283 143.764 130.49 143.05C130.139 142.898 129.75 142.855 129.375 142.926C128.999 142.998 128.654 143.18 128.383 143.451L125.805 146.031H120.875C120.369 146.031 119.885 146.232 119.527 146.59C119.17 146.947 118.969 147.432 118.969 147.937V151.75H115.156C114.651 151.75 114.166 151.951 113.808 152.308C113.451 152.666 113.25 153.151 113.25 153.656V157.469H107.531V150.632L121.549 136.617C121.82 136.346 122.002 136.001 122.074 135.625C122.145 135.25 122.102 134.861 121.95 134.51C121.234 132.711 120.869 130.792 120.875 128.856C120.875 120.721 127.502 113.892 135.625 113.632C137.711 113.563 139.79 113.922 141.732 114.688C143.674 115.455 145.438 116.612 146.914 118.088C148.391 119.564 149.549 121.327 150.316 123.269C151.083 125.21 151.444 127.289 151.375 129.375ZM143.75 124.109C143.75 124.675 143.582 125.228 143.268 125.698C142.954 126.168 142.507 126.535 141.985 126.751C141.462 126.967 140.887 127.024 140.333 126.914C139.778 126.803 139.269 126.531 138.869 126.131C138.469 125.731 138.197 125.222 138.086 124.667C137.976 124.113 138.032 123.538 138.249 123.015C138.465 122.493 138.832 122.046 139.302 121.732C139.772 121.418 140.325 121.25 140.891 121.25C141.649 121.25 142.376 121.551 142.912 122.087C143.449 122.624 143.75 123.351 143.75 124.109Z" fill="white"/>
<defs>
<clipPath id="clip0_17_280">
<rect width="89.6898" height="89.6898" fill="white" transform="translate(73.2134) rotate(15)"/>
</clipPath>
<clipPath id="clip1_17_280">
<rect width="76" height="76" fill="white" transform="translate(10 124.67) rotate(-15)"/>
</clipPath>
</defs>
</svg>
