<svg version="1.2" xmlns="http://www.w3.org/2000/svg" viewBox="0 0 212 220" width="212" height="220"><style>.a{fill:#fff}</style><path fill-rule="evenodd" class="a" d="m40.7 142.9c-14.4-19-20.2-44.3-13.5-69 11.4-42.7 55.3-68.1 98-56.7 42.7 11.5 68.1 55.4 56.6 98.1-5.2 19.4-17.1 35.3-32.6 45.7l20.5 35.5c1.6 2.8 0.7 6.5-2.2 8.2-2.9 1.6-6.5 0.6-8.2-2.2l-23.4-40.6c-1.7-2.8-0.7-6.5 2.2-8.2q0.1 0 0.2-0.1c15.2-8.7 27-23.2 31.9-41.4 9.7-36.3-11.8-73.6-48.1-83.4-36.3-9.7-73.6 11.9-83.4 48.2-5.9 22-0.2 44.5 13.3 60.9q0.6 0.5 0.9 1.1 2.8 3.3 6 6.1 0.2 0.2 0.4 0.4c7.3 6.6 15.4 9.4 22.1 11.2 17.8 4.8 32.6-3.4 35.6-14.7 1.8-7-1.7-14.6-11.5-20.3l-29-16.8-9.9 17.1c-1.6 2.8-5.3 3.8-8.2 2.2-2.8-1.7-3.8-5.4-2.2-8.2l31.4-54.3-6.7-3.9c-2.9-1.6-3.9-5.3-2.2-8.2 1.7-2.8 5.3-3.8 8.2-2.2l6.7 3.9 6.8-11.8c1.6-2.9 5.3-3.9 8.2-2.2 2.8 1.7 3.8 5.3 2.2 8.2l-6.8 11.8 14.8 8.5 6.9-12c1.6-2.8 5.3-3.8 8.2-2.2 2.8 1.7 3.8 5.4 2.2 8.2l-6.9 12 0.7 0.4c17 9.9 18.4 26.7 11.6 38.5-3.6 6.1-9.3 11-16.4 12.9 4.5 7 5.3 14.5 3.5 21.5-4.3 16.2-24.7 30-50.3 23.2q-2-0.5-4.1-1.2l-7 12c-1.6 2.9-5.3 3.8-8.2 2.2-2.8-1.7-3.8-5.3-2.2-8.2l6.2-10.6c-4.4-2.3-8.7-5.2-12.8-9.1q-0.2-0.1-0.3-0.2-0.4-0.4-0.8-0.8l-7.2 12.3c-1.6 2.9-5.3 3.9-8.2 2.2-2.9-1.6-3.8-5.3-2.2-8.2zm41.8-48.3l25.9 14.9c9.8 5.7 18.8 2.1 22.7-4.8 3.9-6.8 2.7-16.3-7.2-22l-25.9-15z"/></svg>